# xmcd
#
# Track frame offsets:
#	150
#	18186
#	34741
#	48804
#	65766
#	84816
#	98915
#	115483
#	127352
#	142902
#	156945
#	172645
#	186467
#
# Disc length: 2697 seconds
#
# Revision: 2
# Processed by: cddbd v1.5.2PL0 Copyright (c) Steve Scherf et al.
# Submitted via: audiograbber 1.83.01
#
DISCID=a90a870d
DTITLE=Various Artist - CDX 664
DYEAR=2018
DGENRE=Country
TTITLE0=Dierks Bentley ft. Brothers Osborne - Burning Man
TTITLE1=Michael Ray - One That Got Away
TTITLE2=Ashley McBryde - Radioland
TTITLE3=Lee Brice - Rumor
TTITLE4=Darius Rucker (ft. Jason Aldean, Luke Bryan And Charles Kelley)  - Stra
TTITLE4=ight To Hell [Radio Edit]
TTITLE5=Little Big Town - Summer Fever
TTITLE6=Lisa Bouchelle - If You Could Reda My Mind
TTITLE7=David Frizzell and Marty Haggard - Lefty, Merle and Me
TTITLE8=Cody Jinks - Must Be The Whiskey
TTITLE9=Joe Lasher - Nothing Better To Do
TTITLE10=Red Marlow - The Good Ones
TTITLE11=Houston Bernard Band - We Made Out
TTITLE12=Red Marlow - My House In Heaven
EXTD=
EXTT0=
EXTT1=
EXTT2=
EXTT3=
EXTT4=
EXTT5=
EXTT6=
EXTT7=
EXTT8=
EXTT9=
EXTT10=
EXTT11=
EXTT12=
PLAYORDER=
